HIERARCHY
ROOT joint_Root
{
	OFFSET 0.0 0.0 0.0
	CHANNELS 6 Xposition Yposition Zposition Zrotation Xrotation Yrotation 
	JOINT Hips
	{
		OFFSET 4.5925 91.4895 -427.239
		CHANNELS 6 Xposition Yposition Zposition Zrotation Xrotation Yrotation 
		JOINT Spine
		{
			OFFSET 15.7357 0.0 0.0
			CHANNELS 6 Xposition Yposition Zposition Zrotation Xrotation Yrotation 
			JOINT Chest
			{
				OFFSET 8.98455 -0.406207 0.0
				CHANNELS 6 Xposition Yposition Zposition Zrotation Xrotation Yrotation 
				JOINT Neck
				{
					OFFSET 16.3773 0.0 0.0
					CHANNELS 6 Xposition Yposition Zposition Zrotation Xrotation Yrotation 
					JOINT Head
					{
						OFFSET 6.45672 0.0 0.0
						CHANNELS 6 Xposition Yposition Zposition Zrotation Xrotation Yrotation 
						End Site
						{
							OFFSET 0.0 0.0 0.0
						}
					}
				}
				JOINT Shoulder_L
				{
					OFFSET 12.9942 -0.242716 4.98039
					CHANNELS 6 Xposition Yposition Zposition Zrotation Xrotation Yrotation 
					JOINT UpperArm_L
					{
						OFFSET 5.34809 0.0 0.0
						CHANNELS 6 Xposition Yposition Zposition Zrotation Xrotation Yrotation 
						JOINT LowerArm_L
						{
							OFFSET 24.3286 1.87007e-05 0.0
							CHANNELS 6 Xposition Yposition Zposition Zrotation Xrotation Yrotation 
							JOINT Hand_L
							{
								OFFSET 22.2916 0.0 0.0
								CHANNELS 6 Xposition Yposition Zposition Zrotation Xrotation Yrotation 
								End Site
								{
									OFFSET 0.0 0.0 0.0
								}
							}
						}
					}
				}
				JOINT Shoulder_R
				{
					OFFSET 12.9945 -0.242716 -4.98039
					CHANNELS 6 Xposition Yposition Zposition Zrotation Xrotation Yrotation 
					JOINT UpperArm_R
					{
						OFFSET -5.34813 0.0 0.0
						CHANNELS 6 Xposition Yposition Zposition Zrotation Xrotation Yrotation 
						JOINT LowerArm_R
						{
							OFFSET -24.3289 0.000322201 0.0
							CHANNELS 6 Xposition Yposition Zposition Zrotation Xrotation Yrotation 
							JOINT Hand_R
							{
								OFFSET -22.2915 -0.000108084 0.0
								CHANNELS 6 Xposition Yposition Zposition Zrotation Xrotation Yrotation 
								End Site
								{
									OFFSET 0.0 0.0 0.0
								}
							}
						}
					}
				}
			}
		}
		JOINT UpperLeg_L
		{
			OFFSET -2.19248 -6.46944 0.0
			CHANNELS 6 Xposition Yposition Zposition Zrotation Xrotation Yrotation 
			JOINT LowerLeg_L
			{
				OFFSET 39.0811 0.0 -1.23785e-05
				CHANNELS 6 Xposition Yposition Zposition Zrotation Xrotation Yrotation 
				JOINT Foot_L
				{
					OFFSET 40.9854 0.0 -1.26872e-05
					CHANNELS 6 Xposition Yposition Zposition Zrotation Xrotation Yrotation 
					JOINT Toes_L
					{
						OFFSET 11.7543 0.0 0.0
						CHANNELS 6 Xposition Yposition Zposition Zrotation Xrotation Yrotation 
						End Site
						{
							OFFSET 0.0 0.0 0.0
						}
					}
				}
			}
		}
		JOINT UpperLeg_R
		{
			OFFSET -2.19251 6.46944 0.0
			CHANNELS 6 Xposition Yposition Zposition Zrotation Xrotation Yrotation 
			JOINT LowerLeg_R
			{
				OFFSET -39.0811 -0.00228153 -0.0401928
				CHANNELS 6 Xposition Yposition Zposition Zrotation Xrotation Yrotation 
				JOINT Foot_R
				{
					OFFSET -40.9854 0.0 0.0
					CHANNELS 6 Xposition Yposition Zposition Zrotation Xrotation Yrotation 
					JOINT Toes_R
					{
						OFFSET -11.7543 0.0 0.0
						CHANNELS 6 Xposition Yposition Zposition Zrotation Xrotation Yrotation 
						End Site
						{
							OFFSET 0.0 0.0 0.0
						}
					}
				}
			}
		}
	}
}
MOTION
Frames:	7
Frame Time:	0.0333333
0.000000 0.000000 0.000000 0.000000 0.000000 -0.000000 -7.937060 90.325100 -1.394880 84.330400 -3.910940 9.980700 15.735700 0.000005 -0.000001 85.810100 81.620700 -82.865500 8.984550 -0.406207 -0.000000 8.986650 -1.186530 5.977590 16.377300 -0.000001 -0.000001 3.319910 -3.048910 -0.107325 6.456720 -0.000001 -0.000000 -6.668350 -2.973510 2.080960 12.994200 -0.242716 4.980390 -91.447300 4.927580 -73.609900 5.348090 -0.000007 -0.000001 -67.337800 32.415300 -13.072200 24.328600 0.000019 0.000005 13.150300 26.418000 -27.704500 22.291600 -0.000001 0.000005 7.334040 5.303080 -0.014100 12.994500 -0.242716 -4.980390 87.998700 11.478500 -80.040500 -5.348130 -0.000001 -0.000004 -60.708000 34.500700 -10.537000 -24.328900 0.000322 -0.000009 2.522680 6.829790 -20.336400 -22.291500 -0.000108 -0.000004 14.417900 5.426630 -3.824160 -2.192480 -6.469440 -0.000000 -164.364000 -10.475300 -1.382590 39.081100 -0.000007 -0.000012 -0.276246 0.415959 33.589400 40.985400 -0.000006 -0.000013 -4.223940 7.806320 -70.766500 11.754300 -0.000000 0.000003 -0.000095 -0.000984 -16.615300 -2.192510 6.469440 -0.000001 -177.307000 26.294400 -176.493000 -39.081100 -0.002282 -0.040193 -0.161590 0.312907 27.788700 -40.985400 0.000008 0.000006 9.188110 15.838600 -72.192100 -11.754300 -0.000006 -0.000006 -0.000889 -0.013812 -17.134900
0.000000 0.000000 0.000000 0.000000 0.000000 -0.000000 -7.958350 90.320700 -1.448160 84.347100 -3.918050 10.034200 15.735700 0.000005 -0.000001 85.749600 81.592700 -82.755400 8.984550 -0.406207 -0.000000 9.042610 -1.206150 6.078870 16.377300 -0.000001 -0.000001 3.495700 -3.238320 0.018013 6.456720 -0.000001 -0.000000 -6.555790 -3.236520 2.306620 12.994200 -0.242716 4.980390 -91.431200 4.887410 -73.656600 5.348090 -0.000007 -0.000001 -67.043100 32.303600 -13.516600 24.328600 0.000019 0.000005 13.090000 26.232000 -27.747100 22.291600 -0.000001 0.000005 7.361400 5.302330 0.006950 12.994500 -0.242716 -4.980390 88.002600 11.426200 -80.015500 -5.348130 -0.000001 -0.000004 -60.677500 34.395700 -10.545600 -24.328900 0.000322 -0.000009 2.555900 6.959920 -20.230500 -22.291500 -0.000108 -0.000004 14.440400 5.425510 -3.785610 -2.192480 -6.469440 -0.000000 -164.346000 -10.490900 -1.377240 39.081100 -0.000007 -0.000012 -0.273918 0.412204 33.605400 40.985400 -0.000006 -0.000013 -4.234800 7.845940 -70.727500 11.754300 -0.000000 0.000003 -0.000093 -0.000970 -16.614800 -2.192510 6.469440 -0.000001 -177.317000 26.280500 -176.512000 -39.081100 -0.002282 -0.040193 -0.166821 0.321986 27.850800 -40.985400 0.000008 0.000006 9.219900 15.841500 -72.188700 -11.754300 -0.000006 -0.000006 -0.000946 -0.014631 -17.168200
0.000000 0.000000 0.000000 0.000000 0.000000 -0.000000 -7.977070 90.319800 -1.513490 84.363200 -3.867330 10.087600 15.735700 0.000005 -0.000001 85.514600 81.571000 -82.482700 8.984550 -0.406207 -0.000000 9.083280 -1.276380 6.160310 16.377300 -0.000001 -0.000001 3.720310 -3.417240 0.141841 6.456720 -0.000001 -0.000000 -6.387060 -3.483640 2.690260 12.994200 -0.242716 4.980390 -91.413700 4.818490 -73.627500 5.348090 -0.000007 -0.000001 -66.629500 32.144000 -14.071200 24.328600 0.000019 0.000005 13.073700 25.901700 -27.995500 22.291600 -0.000001 0.000005 7.407730 5.303470 -0.025084 12.994500 -0.242716 -4.980390 87.995300 11.435500 -79.987700 -5.348130 -0.000001 -0.000004 -60.599900 34.407600 -10.555500 -24.328900 0.000322 -0.000009 2.534920 6.934930 -20.143800 -22.291500 -0.000108 -0.000004 14.429700 5.424350 -3.746050 -2.192480 -6.469440 -0.000000 -164.352000 -10.460600 -1.394400 39.081100 -0.000007 -0.000012 -0.271923 0.408996 33.618700 40.985400 -0.000006 -0.000013 -4.234420 7.880530 -70.680600 11.754300 -0.000000 0.000003 -0.000094 -0.000972 -16.614900 -2.192510 6.469440 -0.000001 -177.297000 26.273000 -176.530000 -39.081100 -0.002282 -0.040193 -0.160779 0.310153 27.881200 -40.985400 0.000008 0.000006 9.229770 15.758900 -72.162000 -11.754300 -0.000006 -0.000006 -0.000782 -0.012257 -17.071700
0.000000 0.000000 0.000000 0.000000 0.000000 -0.000000 -7.992320 90.319300 -1.573380 84.383900 -3.798270 10.085300 15.735700 0.000005 -0.000001 85.274300 81.559100 -82.200500 8.984550 -0.406207 -0.000000 9.104000 -1.347330 6.250070 16.377300 -0.000001 -0.000001 4.038630 -3.559760 0.267981 6.456720 -0.000001 -0.000000 -6.260640 -3.675980 3.061570 12.994200 -0.242716 4.980390 -91.408500 4.782570 -73.568400 5.348090 -0.000007 -0.000001 -65.972900 31.853000 -14.977000 24.328600 0.000019 0.000005 13.241600 25.832800 -28.370100 22.291600 -0.000001 0.000005 7.073530 5.306680 -0.116197 12.994500 -0.242716 -4.980390 87.985900 11.413600 -79.923100 -5.348130 -0.000001 -0.000004 -60.526100 34.372200 -10.663400 -24.328900 0.000322 -0.000009 2.556820 7.051390 -19.996800 -22.291500 -0.000108 -0.000004 14.299400 5.425790 -3.795810 -2.192480 -6.469440 -0.000000 -164.389000 -10.389600 -1.473510 39.081100 -0.000007 -0.000012 -0.276848 0.416224 33.630000 40.985400 -0.000006 -0.000013 -4.240490 7.875220 -70.636100 11.754300 -0.000000 0.000003 -0.000094 -0.000976 -16.615100 -2.192510 6.469440 -0.000001 -177.297000 26.319100 -176.607000 -39.081100 -0.002282 -0.040193 -0.164777 0.317110 27.925900 -40.985400 0.000008 0.000006 9.241840 15.734800 -72.145400 -11.754300 -0.000006 -0.000006 -0.000872 -0.013574 -17.125200
0.000000 0.000000 0.000000 0.000000 0.000000 -0.000000 -7.995800 90.319400 -1.624850 84.424600 -3.773830 10.168100 15.735700 0.000005 -0.000001 85.172300 81.537300 -82.068900 8.984550 -0.406207 -0.000000 9.146370 -1.379230 6.312240 16.377300 -0.000001 -0.000001 4.443600 -3.680130 0.361980 6.456720 -0.000001 -0.000000 -5.971920 -3.844900 3.510020 12.994200 -0.242716 4.980390 -91.397400 4.714530 -73.469000 5.348090 -0.000007 -0.000001 -65.198000 31.346800 -15.998000 24.328600 0.000019 0.000005 13.670800 25.860200 -29.146100 22.291600 -0.000001 0.000005 6.877400 5.311870 -0.263027 12.994500 -0.242716 -4.980390 87.966800 11.423900 -79.838600 -5.348130 -0.000001 -0.000004 -60.451000 34.371800 -10.722800 -24.328900 0.000322 -0.000009 2.528640 7.002480 -19.920100 -22.291500 -0.000108 -0.000004 14.420200 5.422900 -3.697040 -2.192480 -6.469440 -0.000000 -164.419000 -10.345200 -1.424810 39.081100 -0.000007 -0.000012 -0.277898 0.418024 33.616100 40.985400 -0.000006 -0.000013 -4.245190 7.879390 -70.598100 11.754300 -0.000000 0.000003 -0.000092 -0.000961 -16.614500 -2.192510 6.469440 -0.000001 -177.323000 26.247700 -176.579000 -39.081100 -0.002282 -0.040193 -0.161403 0.310283 27.961200 -40.985400 0.000008 0.000006 9.227590 15.623300 -72.127300 -11.754300 -0.000006 -0.000006 -0.000990 -0.015268 -17.194100
0.000000 0.000000 0.000000 0.000000 0.000000 -0.000000 -8.001610 90.316300 -1.676860 84.458700 -3.670130 10.279500 15.735700 0.000005 -0.000001 84.917100 81.508700 -81.785700 8.984550 -0.406207 -0.000000 9.199800 -1.457120 6.374990 16.377300 -0.000001 -0.000001 4.931640 -3.819760 0.493215 6.456720 -0.000001 -0.000000 -5.538490 -4.003790 3.898560 12.994200 -0.242716 4.980390 -91.386100 4.645970 -73.367300 5.348090 -0.000007 -0.000001 -64.267000 30.352200 -17.322200 24.328600 0.000019 0.000005 14.261000 26.026300 -30.082000 22.291600 -0.000001 0.000005 6.650290 5.321650 -0.543003 12.994500 -0.242716 -4.980390 87.945200 11.400700 -79.712300 -5.348130 -0.000001 -0.000004 -60.448500 34.327600 -10.787100 -24.328900 0.000322 -0.000009 2.525720 7.012990 -19.871500 -22.291500 -0.000108 -0.000004 14.412000 5.423690 -3.723870 -2.192480 -6.469440 -0.000000 -164.452000 -10.301800 -1.413690 39.081100 -0.000007 -0.000012 -0.273423 0.410797 33.647900 40.985400 -0.000006 -0.000013 -4.235250 7.894720 -70.549400 11.754300 -0.000000 0.000003 -0.000095 -0.000981 -16.615200 -2.192510 6.469440 -0.000001 -177.389000 26.302800 -176.534000 -39.081100 -0.002282 -0.040193 -0.163588 0.313636 28.018800 -40.985400 0.000008 0.000006 9.233940 15.571300 -72.121000 -11.754300 -0.000006 -0.000006 -0.000934 -0.014464 -17.161400
0.000000 0.000000 0.000000 0.000000 0.000000 -0.000000 -8.012910 90.316700 -1.725730 84.483800 -3.584150 10.367700 15.735700 0.000005 -0.000001 84.761400 81.485400 -81.602200 8.984550 -0.406207 -0.000000 9.244000 -1.505420 6.435220 16.377300 -0.000001 -0.000001 5.464780 -3.966130 0.624038 6.456720 -0.000001 -0.000000 -4.981300 -4.219090 4.373590 12.994200 -0.242716 4.980390 -91.395600 4.629660 -73.205000 5.348090 -0.000007 -0.000001 -62.910200 29.187300 -18.926800 24.328600 0.000019 0.000005 15.042300 25.786400 -31.706400 22.291600 -0.000001 0.000005 6.248450 5.322560 -0.569755 12.994500 -0.242716 -4.980390 87.936300 11.352000 -79.625900 -5.348130 -0.000001 -0.000004 -60.495800 34.213600 -10.829400 -24.328900 0.000322 -0.000009 2.547230 7.074930 -19.866800 -22.291500 -0.000108 -0.000004 14.397400 5.424910 -3.765290 -2.192480 -6.469440 -0.000000 -164.460000 -10.273700 -1.375370 39.081100 -0.000007 -0.000012 -0.272874 0.410054 33.642600 40.985400 -0.000006 -0.000013 -4.221790 7.958890 -70.509400 11.754300 -0.000000 0.000003 -0.000089 -0.000927 -16.613200 -2.192510 6.469440 -0.000001 -177.426000 26.318600 -176.497000 -39.081100 -0.002282 -0.040193 -0.165953 0.317705 28.046800 -40.985400 0.000008 0.000006 9.229360 15.499500 -72.099600 -11.754300 -0.000006 -0.000006 -0.000947 -0.014652 -17.169100
